<svg viewBox="0,0,928,200" style="overflow: visible;" xmlns="http://www.w3.org/2000/svg" xmlns:xlink="http://www.w3.org/1999/xlink"><g font-family="sans-serif" font-size="10" transform="translate(40,120)"><g fill="none" stroke="#555" stroke-opacity="0.4" stroke-width="1.5"><path d="M0,0C100,0,100,-20,200,-20"/><path d="M0,0C100,0,100,0,200,0"/><path d="M0,0C100,0,100,20,200,20"/><path d="M200,-20C300,-20,300,-100,400,-100"/><path d="M200,-20C300,-20,300,-60,400,-60"/><path d="M200,-20C300,-20,300,-40,400,-40"/><path d="M200,-20C300,-20,300,-20,400,-20"/><path d="M200,-20C300,-20,300,0,400,0"/><path d="M200,-20C300,-20,300,20,400,20"/><path d="M200,-20C300,-20,300,40,400,40"/><path d="M200,-20C300,-20,300,60,400,60"/><path d="M400,-100C500,-100,500,-100,600,-100"/><path d="M400,-60C500,-60,500,-60,600,-60"/></g><g stroke-linejoin="round" stroke-width="3"><g transform="translate(0,0)"><text dy="0.31em" x="-6" text-anchor="end" stroke="white">div</text><circle fill="#555" r="2.5"/><text dy="0.31em" x="-6" text-anchor="end">div</text></g><g transform="translate(200,-20)"><text dy="0.31em" x="-6" text-anchor="end" stroke="white">svg</text><circle fill="#555" r="2.5"/><text dy="0.31em" x="-6" text-anchor="end">svg</text></g><g transform="translate(200,0)"><text dy="0.31em" x="6" text-anchor="start" stroke="white">div:tooltip</text><circle fill="#999" r="2.5"/><text dy="0.31em" x="6" text-anchor="start">div:tooltip</text></g><g transform="translate(200,20)"><text dy="0.31em" x="6" text-anchor="start" stroke="white">div:overlay</text><circle fill="#999" r="2.5"/><text dy="0.31em" x="6" text-anchor="start">div:overlay</text></g><g transform="translate(400,-100)"><text dy="0.31em" x="-6" text-anchor="end" stroke="white">g</text><circle fill="#555" r="2.5"/><text dy="0.31em" x="-6" text-anchor="end">g</text></g><g transform="translate(400,-60)"><text dy="0.31em" x="-6" text-anchor="end" stroke="white">g</text><circle fill="#555" r="2.5"/><text dy="0.31em" x="-6" text-anchor="end">g</text></g><g transform="translate(400,-40)"><text dy="0.31em" x="6" text-anchor="start" stroke="white">text: x-axis title</text><circle fill="#999" r="2.5"/><text dy="0.31em" x="6" text-anchor="start">text: x-axis title</text></g><g transform="translate(400,-20)"><text dy="0.31em" x="6" text-anchor="start" stroke="white">text: y-axis title</text><circle fill="#999" r="2.5"/><text dy="0.31em" x="6" text-anchor="start">text: y-axis title</text></g><g transform="translate(400,0)"><text dy="0.31em" x="6" text-anchor="start" stroke="white">rect[0]</text><circle fill="#999" r="2.5"/><text dy="0.31em" x="6" text-anchor="start">rect[0]</text></g><g transform="translate(400,20)"><text dy="0.31em" x="6" text-anchor="start" stroke="white">rect[1]</text><circle fill="#999" r="2.5"/><text dy="0.31em" x="6" text-anchor="start">rect[1]</text></g><g transform="translate(400,40)"><text dy="0.31em" x="6" text-anchor="start" stroke="white">rect[...]</text><circle fill="#999" r="2.5"/><text dy="0.31em" x="6" text-anchor="start">rect[...]</text></g><g transform="translate(400,60)"><text dy="0.31em" x="6" text-anchor="start" stroke="white">rect[x]</text><circle fill="#999" r="2.5"/><text dy="0.31em" x="6" text-anchor="start">rect[x]</text></g><g transform="translate(600,-100)"><text dy="0.31em" x="6" text-anchor="start" stroke="white">y-axis</text><circle fill="#999" r="2.5"/><text dy="0.31em" x="6" text-anchor="start">y-axis</text></g><g transform="translate(600,-60)"><text dy="0.31em" x="6" text-anchor="start" stroke="white">x-axis</text><circle fill="#999" r="2.5"/><text dy="0.31em" x="6" text-anchor="start">x-axis</text></g></g></g></svg>